<svg width="633" height="595" viewBox="0 0 633 595" fill="none" xmlns="http://www.w3.org/2000/svg">
<path d="M416.044 11.9972C412.663 19.1118 394.995 56.7974 376.781 95.5945L343.735 166.185H290.513H237.29L210.243 113.937C195.41 85.1449 182.541 61.6887 181.778 61.6887C181.014 61.6887 178.397 65.5795 175.997 70.4709L171.635 79.253L171.308 196.867L171.089 314.593H145.569C131.609 314.593 114.922 314.926 108.597 315.371L96.9269 316.038V323.264V330.49L134.663 329.823L172.289 329.267L173.271 331.713C173.707 333.047 174.361 335.381 174.579 336.826C174.907 339.272 173.053 340.05 136.517 352.834C115.468 360.282 97.9085 366.619 97.5813 366.952C97.2541 367.286 97.9085 370.621 99.2172 374.289L101.398 381.071L108.706 378.514C149.059 364.284 180.36 353.501 181.45 353.501C182.105 353.501 184.286 355.391 186.14 357.837L189.521 362.061L162.583 381.849C147.75 392.743 135.208 402.081 134.663 402.526C133.681 403.415 141.097 414.643 142.624 414.643C143.06 414.643 156.584 404.971 172.616 393.077L201.845 371.51L207.516 374.067C222.676 380.848 240.998 383.627 270.336 383.627C323.668 383.627 361.294 373.845 380.38 354.946L387.36 348.054L392.159 351.5C394.668 353.39 396.849 355.502 396.849 356.058C396.849 358.059 382.998 370.954 376.454 374.956C356.714 387.185 328.248 394.188 292.694 395.633L275.244 396.3L274.481 411.086C273.063 437.988 268.7 463.445 260.957 490.792C257.903 501.353 250.051 524.364 249.178 525.476C249.069 525.587 197.919 528.255 135.644 531.368C73.2603 534.369 20.365 537.482 18.1838 538.038C12.5125 539.705 5.42346 545.597 2.69689 550.822C-0.356856 556.936 -0.902168 567.386 1.49721 574.834C3.78752 581.838 10.6585 589.842 16.766 592.621C20.9103 594.622 32.9072 594.733 319.523 594.733H617.919L618.573 590.509C627.189 530.59 629.152 513.025 631.442 478.008C633.078 452.773 632.097 397.968 629.697 377.958C619.554 292.026 588.581 234.664 533.177 199.202C522.816 192.643 500.567 181.971 487.48 177.302C478.428 174.189 452.143 166.741 449.962 166.741C449.744 166.741 449.199 173.856 448.872 182.527C447.781 213.098 440.692 231.329 425.968 241.668C419.861 246.003 408.737 250.116 403.283 250.116H400.012L400.339 243.78L400.666 237.332L405.356 236.554C415.826 234.775 424.878 227.327 430.004 216.21C435.566 203.982 435.566 204.871 435.566 107.823C435.566 9.10685 435.784 12.3307 429.349 4.88251C422.915 -2.56565 422.915 -2.45449 416.044 11.9972ZM231.728 298.918C235.545 301.364 238.272 307.589 237.181 311.814C236.091 316.26 231.292 321.152 227.148 321.93C219.186 323.486 212.533 317.706 212.533 309.368C212.533 305.144 213.078 303.81 216.241 300.586C220.604 296.139 226.275 295.472 231.728 298.918ZM329.448 299.03C341.118 308.256 330.539 326.71 316.906 320.929C312.325 318.928 309.599 314.259 309.599 308.368C309.599 305.255 310.471 303.476 313.307 300.586C316.47 297.362 317.778 296.806 321.923 296.806C325.086 296.806 327.703 297.584 329.448 299.03Z" fill="black"/>
</svg>
